# xmcd CD database file
#
# Track frame offsets:
#	150
#	24091
#	40957
#	49013
#	66986
#	80549
#	113236
#	124046
#	148334
#	156700
#	162862
#	171046
#	190494
#	196237
#	205103
#	212400
#	226093
#	232632
#	270392
#	280952
#	324653
#
# Disc length: 4654 seconds
#
# Revision: 0
# Processed by: cddbd v1.5.1PL0 Copyright (c) Steve Scherf et al.
# Submitted via: CDex 1.51
#
DISCID=26122c15
DTITLE=Vanessa Mae - Classic
DYEAR=1900
DGENRE=New Age
TTITLE0=La Campanella (Paganini arr. Kreisler orch. James)
TTITLE1=I Preludio (J.S. Bach)
TTITLE2=Les Parapluies De Cherbourg (Legrand arr. Vaness Mae or.)
TTITLE3=Russian Dance (Tchaikovsky)
TTITLE4=III Gavotte En Rondeau (J.S. Bach)
TTITLE5=Violin Concerto in D 'Adelaide' I. (Marius Casadesus) 
TTITLE6=The Pink Painter (Mancini)
TTITLE7=Figaro (Castelnuovo-Tedesco)
TTITLE8=Fritz Kreisler - Schon Rosmarin
TTITLE9=V Menuet II (J.S. Bach)
TTITLE10=Summertime (Gershwin)
TTITLE11=Violin Conserto in D III. Allegro (Marius Casadesus)
TTITLE12=IV Menuet I (J.S. Bach)
TTITLE13=Lullaby (Brams)
TTITLE14=Yellow Submarine (Lennon and McCartney)
TTITLE15=Liebesfreud (Fritz Kreisler)
TTITLE16=VII Gigue (J.S. Bach)
TTITLE17=Romance No 2 In For Violin And Orchestra OP. 50 (Ludwig Van Bethowen)
TTITLE18=Air On The G String (J.S. Bach)
TTITLE19=Violin Conserto in D OP. 61 III. Rondo (Allegro) (Ludwig Van Bethowen)
TTITLE20=Allegro (On 'Hey The Dusty Miller')
EXTD=
EXTT0=
EXTT1=
EXTT2=
EXTT3=
EXTT4=
EXTT5=
EXTT6=
EXTT7=
EXTT8=
EXTT9=
EXTT10=
EXTT11=
EXTT12=
EXTT13=
EXTT14=
EXTT15=
EXTT16=
EXTT17=
EXTT18=
EXTT19=
EXTT20=
PLAYORDER=
